<svg width="64" height="58" viewBox="0 0 64 58" fill="none" xmlns="http://www.w3.org/2000/svg">
<g id="Group 111">
<path id="Vector" d="M58 0H42C38.6875 0 36 2.78348 36 6.21428V14.9492C36 18.38 38.6875 29 42 29H52V37.2857C52 41.8558 48.4125 45.5714 44 45.5714H43C41.3375 45.5714 40 46.9567 40 48.6786V54.8929C40 56.6147 41.3375 58 43 58H44C55.05 58 64 48.7304 64 37.2857V6.21428C64 2.78348 61.3125 0 58 0ZM22 0H6C2.6875 0 0 2.78348 0 6.21428V22.7857C0 26.2165 2.6875 29 6 29H16V37.2857C16 41.8558 12.4125 45.5714 8 45.5714H7C5.3375 45.5714 4 46.9567 4 48.6786V54.8929C4 56.6147 5.3375 58 7 58H8C19.05 58 28 48.7304 28 37.2857V6.21428C28 2.78348 25.3125 0 22 0Z" fill="#F3AC6A"/>
</g>
</svg>
